<svg width="24" height="20" viewBox="0 0 24 20" fill="none" xmlns="http://www.w3.org/2000/svg">
<path fill-rule="evenodd" clip-rule="evenodd" d="M23.2073 9.2253H3.63039L10.4282 2.26543C10.7378 1.94854 10.7378 1.43466 10.4282 1.1177C10.1186 0.800811 9.61672 0.800737 9.30714 1.1177L1.19215 9.42613C1.04348 9.57833 0.959961 9.78477 0.959961 9.99999C0.959961 10.2152 1.04348 10.4216 1.19215 10.5739L9.30714 18.8824C9.46201 19.0408 9.66479 19.12 9.86772 19.12C10.0706 19.12 10.2734 19.0408 10.4282 18.8824C10.7378 18.5654 10.7378 18.0515 10.4282 17.7346L3.70246 10.8485H23.2073C23.6451 10.8485 24 10.4851 24 10.0369C24 9.58867 23.6451 9.2253 23.2073 9.2253Z" fill="white"/>
</svg>
