<svg width="10" height="10" viewBox="0 0 10 10" fill="none" xmlns="http://www.w3.org/2000/svg">
<mask id="mask0_440_213" style="mask-type:alpha" maskUnits="userSpaceOnUse" x="1" y="1" width="8" height="8">
<path fill-rule="evenodd" clip-rule="evenodd" d="M1.29611 1.29633H8.59186V8.5921H1.29611V1.29633Z" fill="white"/>
</mask>
<g mask="url(#mask0_440_213)">
<path fill-rule="evenodd" clip-rule="evenodd" d="M5.39536 4.94422L8.4984 1.84115C8.62303 1.71655 8.62303 1.51446 8.4984 1.3898C8.37371 1.26517 8.17169 1.26517 8.04702 1.3898L4.94398 4.49288L1.84096 1.3898C1.7163 1.26517 1.51428 1.26517 1.38958 1.3898C1.26495 1.51446 1.26495 1.71655 1.38958 1.84115L4.49263 4.94422L1.38958 8.0473C1.26495 8.1719 1.26495 8.37399 1.38958 8.49865C1.45192 8.56095 1.53359 8.5921 1.61529 8.5921C1.69696 8.5921 1.77863 8.56095 1.84096 8.49865L4.94398 5.39557L8.04702 8.49865C8.10935 8.56095 8.19103 8.5921 8.2727 8.5921C8.3544 8.5921 8.43604 8.56095 8.4984 8.49865C8.62303 8.37399 8.62303 8.1719 8.4984 8.0473L5.39536 4.94422Z" fill="#9B9B9B"/>
</g>
</svg>
