<?xml version="1.0" encoding="UTF-8"?>
<svg width="14px" height="13px" viewBox="0 0 14 13" version="1.1" xmlns="http://www.w3.org/2000/svg" xmlns:xlink="http://www.w3.org/1999/xlink">
    <!-- Generator: Sketch 61 (89581) - https://sketch.com -->
    <title>Stroke 1</title>
    <desc>Created with Sketch.</desc>
    <g id="웹_리뷰검색(PC)_191202(2차수정사항)" stroke="none" stroke-width="1" fill="none" fill-rule="evenodd" stroke-linecap="round" stroke-linejoin="round">
        <g id="D3.0_병원찾기_의사페이지_1024" transform="translate(-625.000000, -4349.000000)" fill="#FAB200" stroke="#F4B200">
            <g id="3_리뷰" transform="translate(32.000000, 2562.000000)">
                <g id="3_리뷰2" transform="translate(0.000000, 997.000000)">
                    <g id="button/도움하트" transform="translate(487.000000, 783.000000)">
                        <path d="M115.999989,8.42574257 C114.491993,8.42574257 113.49961,9.36726932 112.999978,11.0331669 C112.50039,9.36726932 111.508007,8.42574257 110.000011,8.42574257 C108.343122,8.42574257 107,9.90909425 107,11.7388571 C107,13.4158033 108.596313,15.087691 109.4,15.9065296 C110.2036,16.7253681 112.999978,19.3348335 112.999978,19.3348335 C112.999978,19.3348335 115.796356,16.7253681 116.599956,15.9065296 C117.403644,15.087691 119,13.4158033 119,11.7388571 C119,9.90909425 117.656878,8.42574257 115.999989,8.42574257 Z" id="Stroke-1"></path>
                    </g>
                </g>
            </g>
        </g>
    </g>
</svg>