<svg width="12" height="12" viewBox="0 0 12 12" fill="none" xmlns="http://www.w3.org/2000/svg">
<mask id="mask0_440_1427" style="mask-type:alpha" maskUnits="userSpaceOnUse" x="0" y="0" width="10" height="10">
<path fill-rule="evenodd" clip-rule="evenodd" d="M0.119995 0.161957H9.18067V9.22261H0.119995V0.161957Z" fill="white"/>
</mask>
<g mask="url(#mask0_440_1427)">
<path fill-rule="evenodd" clip-rule="evenodd" d="M4.65033 0.161926C3.4909 0.161926 2.33151 0.604221 1.44688 1.48881C-0.3223 3.25803 -0.3223 6.12649 1.44688 7.89567C2.33151 8.7803 3.4909 9.2226 4.65033 9.2226C5.80976 9.2226 6.96915 8.7803 7.85378 7.89567C9.62297 6.12649 9.62297 3.25803 7.85378 1.48881C6.96915 0.604221 5.80976 0.161926 4.65033 0.161926ZM4.65033 0.916983C5.65875 0.916983 6.60681 1.3097 7.31988 2.02272C8.79182 3.4947 8.79182 5.88983 7.31988 7.36181C6.60681 8.07487 5.65875 8.46754 4.65033 8.46754C3.64191 8.46754 2.69386 8.07487 1.98079 7.36181C0.508849 5.88983 0.508849 3.4947 1.98079 2.02272C2.69386 1.3097 3.64191 0.916983 4.65033 0.916983Z" fill="#4C1192"/>
</g>
<path fill-rule="evenodd" clip-rule="evenodd" d="M8.65461 8.3703L8.29869 8.72623L7.40881 7.83635L7.76478 7.48047L8.65461 8.3703Z" fill="#4C1192"/>
<mask id="mask1_440_1427" style="mask-type:alpha" maskUnits="userSpaceOnUse" x="7" y="8" width="5" height="4">
<path fill-rule="evenodd" clip-rule="evenodd" d="M7.99655 8.06815H11.3132V11.3848H7.99655V8.06815Z" fill="white"/>
</mask>
<g mask="url(#mask1_440_1427)">
<path fill-rule="evenodd" clip-rule="evenodd" d="M11.2945 10.7135L10.6419 11.3661C10.617 11.391 10.5767 11.391 10.5517 11.3661L8.15036 8.96475C7.94528 8.75963 7.94528 8.42707 8.15036 8.22199C8.35549 8.01686 8.68805 8.01686 8.89313 8.22199L11.2945 10.6233C11.3194 10.6482 11.3194 10.6886 11.2945 10.7135Z" fill="#4C1192"/>
</g>
</svg>
