<svg width="12" height="12" viewBox="0 0 12 12" fill="none" xmlns="http://www.w3.org/2000/svg">
<path fill-rule="evenodd" clip-rule="evenodd" d="M9.20835 5.12499C9.20835 7.38015 7.38018 9.20832 5.12502 9.20832C2.86986 9.20832 1.04169 7.38015 1.04169 5.12499C1.04169 2.86983 2.86986 1.04166 5.12502 1.04166C7.38018 1.04166 9.20835 2.86983 9.20835 5.12499ZM8.21739 9.0011C7.36954 9.6784 6.29457 10.0833 5.12502 10.0833C2.38661 10.0833 0.166687 7.8634 0.166687 5.12499C0.166687 2.38658 2.38661 0.166656 5.12502 0.166656C7.86343 0.166656 10.0834 2.38658 10.0834 5.12499C10.0834 6.31563 9.66369 7.40825 8.96422 8.263L11.5728 10.8716C11.6509 10.9497 11.6509 11.0764 11.5728 11.1545L11.1132 11.6141C11.0351 11.6922 10.9085 11.6922 10.8304 11.6141L8.21739 9.0011Z" fill="#9B9B9B"/>
</svg>
