<svg width="14" height="12" viewBox="0 0 14 12" fill="none" xmlns="http://www.w3.org/2000/svg">
<path d="M9.89642 0.646446L6.71444 3.82843C6.51918 4.02369 6.51918 4.34027 6.71444 4.53553C6.9097 4.7308 7.22628 4.7308 7.42155 4.53553L9.74997 2.20711V11C9.74997 11.2761 9.97383 11.5 10.25 11.5C10.5261 11.5 10.75 11.2761 10.75 11V2.20711L13.0784 4.53553C13.2737 4.7308 13.5902 4.7308 13.7855 4.53553C13.9808 4.34027 13.9808 4.02369 13.7855 3.82843L10.6035 0.646446C10.4083 0.451185 10.0917 0.451185 9.89642 0.646446Z" fill="#494949"/>
<path d="M4.10353 11.3536L7.28551 8.17157C7.48077 7.97631 7.48077 7.65973 7.28551 7.46447C7.09025 7.26921 6.77366 7.26921 6.5784 7.46447L4.24997 9.79289L4.24997 1C4.24997 0.723858 4.02612 0.5 3.74997 0.5C3.47383 0.5 3.24997 0.723858 3.24997 1L3.24997 9.79289L0.921547 7.46447C0.726285 7.2692 0.409702 7.2692 0.21444 7.46447C0.0191776 7.65973 0.0191776 7.97631 0.21444 8.17157L3.39642 11.3536C3.59168 11.5488 3.90826 11.5488 4.10353 11.3536Z" fill="#494949"/>
</svg>
