<svg width="16" height="17" viewBox="0 0 16 17" fill="none" xmlns="http://www.w3.org/2000/svg">
<path fill-rule="evenodd" clip-rule="evenodd" d="M8 12.3647L3.98278 14.5L4.75 9.97746L1.5 6.77458L5.99139 6.11475L8 2L10.0086 6.11475L14.5 6.77458L11.25 9.97746L12.0172 14.5L8 12.3647Z" fill="white" stroke="white" stroke-linejoin="round"/>
<path fill-rule="evenodd" clip-rule="evenodd" d="M8 1.5C7.8089 1.50001 7.63452 1.60893 7.55069 1.78066L5.65778 5.65839L1.42734 6.27989C1.23967 6.30746 1.08376 6.43885 1.02479 6.61914C0.96582 6.79942 1.01395 6.99756 1.14905 7.1307L4.21348 10.1507L3.48984 14.4164C3.45796 14.6043 3.53566 14.7939 3.69019 14.9054C3.84471 15.017 4.04919 15.031 4.21747 14.9415L8 12.931V1.5Z" fill="#FFD100"/>
<path fill-rule="evenodd" clip-rule="evenodd" d="M8 12.931L8.00001 12.931L11.7826 14.9415C11.9508 15.031 12.1553 15.017 12.3098 14.9054C12.4644 14.7939 12.5421 14.6043 12.5102 14.4164L11.7865 10.1507L14.851 7.1307C14.9861 6.99756 15.0342 6.79942 14.9752 6.61914C14.9163 6.43885 14.7604 6.30746 14.5727 6.27989L10.3422 5.65839L8.44934 1.78066C8.36551 1.60893 8.19112 1.5 8.00001 1.5C8.00001 1.5 8 1.5 8 1.5V3.13983L8.00001 3.1398L9.5593 6.33408C9.63171 6.48241 9.77265 6.58544 9.93595 6.60944L13.4338 7.12331L10.8991 9.62133C10.7828 9.73594 10.7297 9.90011 10.7571 10.0611L11.3542 13.5814L8.23469 11.9232C8.16132 11.8842 8.08066 11.8647 8 11.8647V12.931Z" fill="#E9E9E9"/>
</svg>
